<svg xmlns="http://www.w3.org/2000/svg" xmlns:xlink="http://www.w3.org/1999/xlink" preserveAspectRatio="xMidYMid" width="128" height="128" viewBox="0 0 128 128">
  <defs>
    <style>
      .cls-1 {
        fill: #646464;
        fill-rule: evenodd;
      }
    </style>
  </defs>
  <path d="M99.000,76.000 L71.299,76.000 L71.299,83.135 L92.004,83.135 L52.000,115.006 L11.996,83.135 L32.701,83.135 L32.701,76.000 L6.000,76.000 C2.686,76.000 -0.000,73.314 -0.000,70.000 L-0.000,6.000 C-0.000,2.686 2.686,-0.000 6.000,-0.000 L99.000,-0.000 C102.314,-0.000 105.000,2.686 105.000,6.000 L105.000,70.000 C105.000,73.314 102.314,76.000 99.000,76.000 ZM26.997,88.025 L52.500,108.004 L78.003,88.025 L64.803,88.025 L64.803,47.996 L40.197,47.996 L40.197,88.025 L26.997,88.025 ZM87.000,8.000 L17.000,8.000 C14.239,8.000 12.000,10.239 12.000,13.000 C12.000,15.761 14.239,18.000 17.000,18.000 L87.000,18.000 C89.761,18.000 92.000,15.761 92.000,13.000 C92.000,10.239 89.761,8.000 87.000,8.000 ZM87.000,28.000 L17.000,28.000 C14.239,28.000 12.000,30.239 12.000,33.000 C12.000,35.761 14.239,38.000 17.000,38.000 L87.000,38.000 C89.761,38.000 92.000,35.761 92.000,33.000 C92.000,30.239 89.761,28.000 87.000,28.000 Z" transform="translate(11.5 6.5)" class="cls-1"/>
</svg>
