<svg xmlns="http://www.w3.org/2000/svg" xmlns:xlink="http://www.w3.org/1999/xlink" preserveAspectRatio="xMidYMid" width="128" height="128" viewBox="0 0 128 128">
  <defs>
    <style>
      .cls-1 {
        fill: #646464;
        fill-rule: evenodd;
      }
    </style>
  </defs>
  <path d="M-0.000,80.000 L-0.000,-0.000 L120.000,-0.000 L120.000,80.000 L-0.000,80.000 ZM108.000,12.000 L12.000,12.000 L12.000,68.000 L78.209,68.000 L103.000,68.000 L108.000,68.000 L108.000,12.000 ZM88.168,54.000 L106.000,54.000 L106.000,62.000 L96.643,62.000 L88.168,54.000 ZM74.395,41.000 L106.000,41.000 L106.000,49.000 L82.871,49.000 L74.395,41.000 ZM60.623,28.000 L106.000,28.000 L106.000,36.000 L69.098,36.000 L60.623,28.000 ZM48.969,17.000 L86.000,17.000 L86.000,21.000 L53.207,21.000 L48.969,17.000 ZM44.307,36.000 L14.000,36.000 L14.000,28.000 L35.832,28.000 L44.307,36.000 ZM58.080,49.000 L14.000,49.000 L14.000,41.000 L49.605,41.000 L58.080,49.000 ZM71.853,62.000 L14.000,62.000 L14.000,54.000 L63.377,54.000 L71.853,62.000 Z" transform="translate(4 24)" class="cls-1"/>
</svg>
