<svg xmlns="http://www.w3.org/2000/svg" xmlns:xlink="http://www.w3.org/1999/xlink" preserveAspectRatio="xMidYMid" width="64" height="64" viewBox="0 0 128 128">
  <defs>
    <style>
      .cls-1 {
        fill: #646464;
        fill-rule: evenodd;
      }
    </style>
  </defs>
  <path d="M75.003,108.000 L86.003,97.000 L64.503,75.500 L75.500,64.503 L97.000,86.003 L108.000,75.003 L108.000,108.000 L75.003,108.000 ZM75.500,43.497 L64.503,32.500 L86.003,11.000 L75.003,0.000 L108.000,0.000 L108.000,32.997 L97.000,21.997 L75.500,43.497 ZM43.497,32.500 L32.500,43.497 L11.000,21.997 L0.000,32.997 L0.000,0.000 L32.997,0.000 L21.997,11.000 L43.497,32.500 ZM32.500,64.503 L43.497,75.500 L21.997,97.000 L32.997,108.000 L0.000,108.000 L0.000,75.003 L11.000,86.003 L32.500,64.503 Z" transform="translate(10 10)" class="cls-1"/>
</svg>
