<svg xmlns="http://www.w3.org/2000/svg" xmlns:xlink="http://www.w3.org/1999/xlink" preserveAspectRatio="xMidYMid" width="127.998" height="127.998" viewBox="0 0 41 41">
  <defs>
    <style>
      .cls-1 {
        fill: #646464;
        fill-rule: evenodd;
      }
    </style>
  </defs>
  <path d="M-0.000,41.000 L-0.000,-0.000 L41.000,-0.000 L41.000,41.000 L-0.000,41.000 ZM24.383,3.339 L3.339,3.339 L3.339,22.169 L24.383,22.169 L24.383,3.339 ZM24.383,25.470 L3.339,25.470 L3.339,37.661 L24.383,37.661 L24.383,25.470 ZM38.787,3.339 L26.596,3.339 L26.596,37.661 L38.787,37.661 L38.787,3.339 ZM29.372,5.552 C30.283,5.552 31.022,6.291 31.022,7.202 C31.022,8.113 30.283,8.852 29.372,8.852 C28.460,8.852 27.722,8.113 27.722,7.202 C27.722,6.291 28.460,5.552 29.372,5.552 ZM37.661,12.191 L27.722,12.191 L27.722,9.978 L37.661,9.978 L37.661,12.191 ZM37.661,17.743 L27.722,17.743 L27.722,15.530 L37.661,15.530 L37.661,17.743 ZM37.661,23.257 L27.722,23.257 L27.722,21.043 L37.661,21.043 L37.661,23.257 ZM37.661,27.722 L27.722,27.722 L27.722,25.470 L37.661,25.470 L37.661,27.722 ZM37.661,32.148 L27.722,32.148 L27.722,29.935 L37.661,29.935 L37.661,32.148 ZM37.661,36.574 L27.722,36.574 L27.722,34.361 L37.661,34.361 L37.661,36.574 ZM32.148,6.639 L37.661,6.639 L37.661,8.852 L32.148,8.852 L32.148,6.639 ZM10.775,26.763 L14.282,29.963 L17.959,26.607 L19.941,28.416 L16.264,31.771 L19.416,34.647 L17.496,36.399 L14.344,33.523 L11.021,36.555 L9.039,34.746 L12.361,31.715 L8.854,28.515 L10.775,26.763 ZM9.973,16.626 L9.973,8.860 L19.958,12.743 L9.973,16.626 Z" class="cls-1"/>
</svg>
