<svg xmlns="http://www.w3.org/2000/svg" xmlns:xlink="http://www.w3.org/1999/xlink" preserveAspectRatio="xMidYMid" width="128" height="128" viewBox="0 0 128 128">
  <defs>
    <style>
      .cls-1 {
        fill: #888;
        fill-rule: evenodd;
      }
    </style>
  </defs>
  <path d="M88.544,39.041 L71.052,56.522 C71.053,56.522 71.053,56.522 71.053,56.523 L64.057,63.514 C64.057,63.514 64.057,63.513 64.056,63.513 L58.488,69.078 C51.330,76.232 40.619,77.634 32.043,73.326 L39.485,65.889 C44.436,67.278 49.968,66.040 53.864,62.146 L68.542,47.478 L81.608,34.420 C87.354,28.678 87.354,19.368 81.608,13.626 C75.862,7.884 66.546,7.884 60.800,13.626 L33.056,41.352 C32.717,41.690 32.402,42.043 32.103,42.405 C32.005,42.524 31.918,42.649 31.824,42.771 C31.632,43.019 31.443,43.268 31.269,43.525 C31.168,43.674 31.076,43.826 30.982,43.978 C30.832,44.217 30.687,44.458 30.552,44.704 C30.463,44.867 30.379,45.032 30.297,45.198 C30.175,45.442 30.061,45.688 29.954,45.937 C29.880,46.106 29.809,46.277 29.742,46.448 C29.644,46.704 29.556,46.962 29.472,47.221 C29.417,47.390 29.360,47.558 29.312,47.728 C29.233,48.008 29.168,48.291 29.105,48.575 C29.072,48.727 29.031,48.878 29.003,49.032 C28.931,49.417 28.876,49.804 28.835,50.193 C28.829,50.246 28.818,50.298 28.813,50.351 C28.772,50.788 28.753,51.227 28.750,51.665 C28.750,51.824 28.761,51.982 28.765,52.140 C28.773,52.424 28.782,52.709 28.806,52.992 C28.821,53.176 28.847,53.358 28.869,53.541 C28.901,53.799 28.935,54.056 28.980,54.313 C29.014,54.503 29.054,54.692 29.095,54.881 C29.149,55.129 29.209,55.375 29.276,55.621 C29.327,55.810 29.381,55.998 29.440,56.186 C29.517,56.430 29.604,56.672 29.694,56.912 C29.762,57.093 29.828,57.275 29.904,57.454 C29.992,57.664 30.093,57.871 30.193,58.077 L23.049,65.217 C21.171,62.290 20.017,59.037 19.608,55.701 C19.600,55.637 19.588,55.574 19.581,55.511 C19.520,54.975 19.487,54.439 19.464,53.901 C19.456,53.730 19.443,53.559 19.439,53.387 C19.429,52.911 19.442,52.436 19.461,51.960 C19.471,51.724 19.478,51.489 19.495,51.254 C19.526,50.822 19.574,50.392 19.629,49.961 C19.665,49.683 19.704,49.405 19.750,49.127 C19.816,48.731 19.893,48.338 19.979,47.945 C20.048,47.636 20.124,47.328 20.205,47.021 C20.302,46.658 20.403,46.297 20.518,45.938 C20.624,45.606 20.742,45.278 20.864,44.950 C20.987,44.619 21.109,44.288 21.248,43.962 C21.396,43.612 21.562,43.270 21.729,42.926 C21.874,42.628 22.014,42.328 22.172,42.035 C22.371,41.668 22.592,41.312 22.811,40.954 C22.971,40.694 23.121,40.431 23.292,40.176 C23.560,39.778 23.855,39.394 24.151,39.009 C24.305,38.808 24.446,38.599 24.608,38.402 C25.081,37.827 25.582,37.268 26.120,36.731 L56.176,6.694 C65.114,-2.238 79.606,-2.238 88.544,6.694 C97.483,15.627 97.483,30.109 88.544,39.041 ZM24.189,66.852 C24.189,66.851 24.189,66.851 24.188,66.851 L31.185,59.859 C31.185,59.859 31.185,59.859 31.185,59.860 C31.185,59.860 31.185,59.860 31.185,59.860 L36.754,54.295 C43.912,47.141 54.623,45.740 63.199,50.047 L55.765,57.475 C50.812,56.087 45.275,57.332 41.378,61.226 L39.994,62.610 L39.993,62.609 L26.699,75.894 L26.699,75.895 L13.636,88.951 C7.890,94.692 7.890,104.002 13.636,109.744 C19.382,115.487 28.698,115.487 34.444,109.745 L62.186,82.021 C66.714,77.495 67.658,70.760 65.049,65.296 L72.197,58.153 C77.878,67.004 76.868,78.901 69.122,86.642 L39.068,116.676 C30.130,125.608 15.639,125.608 6.701,116.676 C-2.238,107.743 -2.238,93.261 6.700,84.329 L24.189,66.852 C24.189,66.852 24.189,66.852 24.189,66.852 Z" transform="translate(16.38 2.31)" class="cls-1"/>
</svg>
