<svg xmlns="http://www.w3.org/2000/svg" xmlns:xlink="http://www.w3.org/1999/xlink" preserveAspectRatio="xMidYMid" width="128" height="128" viewBox="0 0 128 128">
  <defs>
    <style>
      .cls-1 {
        fill: #646464;
        fill-rule: evenodd;
      }
    </style>
  </defs>
  <path d="M93.000,42.000 L5.000,42.000 C2.239,42.000 -0.000,39.761 -0.000,37.000 C-0.000,34.239 2.239,32.000 5.000,32.000 L93.000,32.000 C95.761,32.000 98.000,34.239 98.000,37.000 C98.000,39.761 95.761,42.000 93.000,42.000 ZM93.000,10.000 L5.000,10.000 C2.239,10.000 -0.000,7.761 -0.000,5.000 C-0.000,2.239 2.239,-0.000 5.000,-0.000 L93.000,-0.000 C95.761,-0.000 98.000,2.239 98.000,5.000 C98.000,7.761 95.761,10.000 93.000,10.000 ZM5.000,64.000 L93.000,64.000 C95.761,64.000 98.000,66.239 98.000,69.000 C98.000,71.761 95.761,74.000 93.000,74.000 L5.000,74.000 C2.239,74.000 -0.000,71.761 -0.000,69.000 C-0.000,66.239 2.239,64.000 5.000,64.000 Z" transform="translate(15 27)" class="cls-1"/>
</svg>
