<svg xmlns="http://www.w3.org/2000/svg" xmlns:xlink="http://www.w3.org/1999/xlink" preserveAspectRatio="xMidYMid" width="128" height="128" viewBox="0 0 128 128">
  <defs>
    <style>
      .cls-1 {
        fill: #646464;
        fill-rule: evenodd;
      }
    </style>
  </defs>
  <path d="M96.495,44.000 L64.000,44.000 L64.000,11.505 L75.116,22.621 L97.746,-0.000 L99.990,-0.000 L108.000,8.010 L108.000,9.294 L84.890,32.395 L96.495,44.000 ZM12.505,44.000 L23.111,33.394 L0.000,10.293 L0.000,8.010 L8.010,-0.000 L10.340,-0.000 L33.427,23.078 L44.000,12.505 L44.000,44.000 L12.505,44.000 ZM11.505,64.000 L44.000,64.000 L44.000,96.495 L32.927,85.422 L10.340,108.000 L8.010,108.000 L0.000,99.990 L0.000,97.707 L22.611,75.105 L11.505,64.000 ZM97.495,64.000 L85.390,76.105 L108.000,98.706 L108.000,99.990 L99.990,108.000 L97.746,108.000 L75.616,85.879 L64.000,97.495 L64.000,64.000 L97.495,64.000 Z" transform="translate(10 10)" class="cls-1"/>
</svg>
