<svg xmlns="http://www.w3.org/2000/svg" xmlns:xlink="http://www.w3.org/1999/xlink" preserveAspectRatio="xMidYMid" width="128" height="128" viewBox="0 0 128 128">
  <defs>
    <style>
      .cls-1 {
        fill: #646464;
        fill-rule: evenodd;
      }
    </style>
  </defs>
  <path d="M50.000,101.000 C39.000,101.000 28.843,97.433 20.589,91.411 L10.000,102.000 L10.000,70.000 L42.000,70.000 L29.674,82.326 C35.427,85.918 42.218,88.000 49.500,88.000 C70.211,88.000 87.000,71.211 87.000,50.500 C87.000,48.282 86.796,46.112 86.427,44.000 L99.502,44.000 C99.823,46.288 100.000,48.623 100.000,51.000 C100.000,78.614 77.614,101.000 50.000,101.000 ZM70.536,19.464 C64.538,15.387 57.300,13.000 49.500,13.000 C28.789,13.000 12.000,29.789 12.000,50.500 C12.000,53.425 12.346,56.268 12.979,59.000 L0.645,59.000 C0.226,56.394 -0.000,53.724 -0.000,51.000 C-0.000,23.386 22.386,1.000 50.000,1.000 C61.000,1.000 71.161,4.563 79.416,10.584 L90.000,0.000 L90.000,32.000 L58.000,32.000 L70.536,19.464 Z" transform="translate(14 13)" class="cls-1"/>
</svg>
